<svg width="148" height="40" viewBox="0 0 148 40" fill="none" xmlns="http://www.w3.org/2000/svg">
<path d="M9.35439 5.80014H5.34534L4.29682 9.81035H0.411133V0.715023H24.8355V9.81035H20.9292L19.8807 5.80014H15.8717V25.6858L19.8807 26.9675V30.5642H5.34534V26.9675L9.35439 25.6858V5.80014ZM34.6217 12.3934C35.3907 11.7429 36.3246 11.1538 37.4233 10.626C38.5342 10.0981 39.7 9.83417 40.9203 9.83417C42.825 9.83417 44.2835 10.4295 45.2967 11.6202C46.3098 12.8105 46.8164 14.4738 46.8164 16.6094V26.606L49.4348 27.5449V30.5642H39.2358V27.5449L41.1769 26.643V17.5113C41.1769 15.4984 40.3529 14.4983 38.7049 14.5105C38.0825 14.5105 37.472 14.664 36.874 14.9709C36.2756 15.2652 35.7753 15.5722 35.3723 15.8913C34.9697 16.1979 34.7194 16.4007 34.6217 16.4989V26.606L36.6174 27.5449V30.5642H25.9974V27.5449L29.0003 26.606V5.41579L25.9974 4.66097V0.715023H34.6217V12.3934ZM59.8901 12.7982C59.8901 12.7493 60.1832 12.4609 60.769 11.933C61.3552 11.4052 62.0325 10.9266 62.8016 10.497C63.5829 10.0551 64.3519 9.83417 65.1088 9.83417C65.7069 9.83417 66.2684 9.88345 66.7934 9.98167C67.318 10.0796 67.7273 10.1841 68.02 10.2946C68.3253 10.405 68.5144 10.4725 68.5878 10.497L68.2947 17.7507H64.9256L64.3578 14.5472C63.7111 14.5472 63.0825 14.7069 62.472 15.0261C61.874 15.3327 61.3611 15.6763 60.9338 16.057C60.519 16.4251 60.3115 16.6216 60.3115 16.6461V26.606L64.0651 27.5449V30.5642H51.6871V27.5449L54.6901 26.606V14.3448L51.6871 13.4058V10.3865L59.5605 10.2026L59.8901 12.7982ZM72.4328 3.97978C72.4328 2.9488 72.7503 2.12649 73.3852 1.5128C74.02 0.899113 74.7766 0.592285 75.6555 0.592285C77.7552 0.592285 78.8049 1.72146 78.8049 3.97978C78.8049 5.03531 78.4815 5.87604 77.8345 6.502C77.2 7.11565 76.4733 7.42251 75.6555 7.42251C74.6302 7.42251 73.8368 7.12792 73.2753 6.53881C72.7138 5.9374 72.4328 5.08439 72.4328 3.97978ZM81.3503 27.5449V30.5642H70.1075V27.5449L73.1105 26.606V14.3448L70.1075 13.4058V10.3865L78.7319 10.2026V26.606L81.3503 27.5449ZM87.3559 8.87701C87.3559 6.42223 88.0519 4.47685 89.4434 3.04085C90.8351 1.60485 92.7947 0.592285 95.3947 0.592285C97.2621 0.592285 98.1529 0.8917 98.8486 1.12844C99.8206 1.45918 100.503 1.62327 101.126 1.88101C101.748 2.12649 102.059 2.26149 102.059 2.28603L101.95 7.82754H98.5805L98.0128 5.19485C97.9151 5.17031 97.6648 5.13962 97.2621 5.10281C96.8592 5.066 96.3954 5.04758 95.8704 5.04758C93.9417 5.04758 92.9773 6.11537 92.9773 8.25092V10.5889H97.8664L97.7565 14.3448H92.9773V26.606L96.7309 27.5449V30.5642H84.3532V27.5449L87.3559 26.606V14.3448H83.9868V11.1412L87.3559 10.5889V8.87701ZM109.402 30.9324C107.376 30.9324 105.941 30.3003 105.099 29.0362C104.269 27.7721 103.854 25.9554 103.854 23.5866V14.9156H100.375V11.2517L103.854 10.7731V5.56307L109.475 4.55051V10.7731H114.73V14.9156H109.475V23.2185C109.475 24.4704 109.609 25.3482 109.878 25.8512C110.159 26.3543 110.69 26.606 111.471 26.606C111.923 26.606 112.448 26.5077 113.046 26.3116C113.644 26.1029 114.108 25.9127 114.437 25.7407L115.774 28.6129C113.674 30.1713 111.55 30.9446 109.402 30.9324ZM116.323 10.3865L126.339 10.2026V13.4058L124.234 13.7925L127.584 24.3417L130.77 13.9029L128.591 13.4058V10.3865L138.681 10.2026V13.4058L136.355 13.9029L130.844 29.3491C130.123 31.3865 129.354 33.1295 128.536 34.5778C127.719 36.0261 126.657 37.2286 125.35 38.1861C124.057 39.1433 122.488 39.6222 120.645 39.6222C120.12 39.6222 119.442 39.5729 118.612 39.4747C117.794 39.389 117.257 39.3338 117.001 39.309L117.532 35.2773H119.967C121.261 35.2773 122.28 34.8169 123.025 33.8964C123.782 32.976 124.435 31.8776 124.984 30.601L118.319 14.0134L116.323 13.4058V10.3865ZM141.098 27.6187C141.098 26.5878 141.415 25.7652 142.05 25.1517C142.697 24.5378 143.454 24.2312 144.32 24.2312C145.346 24.2312 146.127 24.5256 146.664 25.1146C147.201 25.704 147.47 26.5385 147.47 27.6187C147.47 28.6741 147.158 29.5148 146.536 30.1409C145.913 30.7544 145.15 31.0613 144.247 31.0613C143.222 31.0613 142.44 30.7667 141.903 30.1776C141.366 29.5763 141.098 28.7233 141.098 27.6187Z" fill="#3E92CC"/>
</svg>
