<svg width="145" height="40" viewBox="0 0 145 40" fill="none" xmlns="http://www.w3.org/2000/svg">
<path d="M9.16735 6.07555H5.23848L4.21093 9.99141H0.402954V1.11008H24.3388V9.99141H20.5107L19.4831 6.07555H15.5543V25.4934L19.4831 26.7448V30.257H5.23848V26.7448L9.16735 25.4934V6.07555ZM33.9293 12.5137C34.683 11.8784 35.5982 11.3033 36.6749 10.7878C37.7635 10.2724 38.906 10.0147 40.102 10.0147C41.9685 10.0147 43.3979 10.596 44.3908 11.7586C45.3837 12.921 45.8801 14.5451 45.8801 16.6304V26.3918L48.4462 27.3087V30.257H38.4511V27.3087L40.3534 26.428V17.5111C40.3534 15.5456 39.5459 14.569 37.9308 14.581C37.3209 14.581 36.7226 14.7308 36.1365 15.0305C35.5501 15.3179 35.0598 15.6176 34.6649 15.9293C34.2703 16.2287 34.025 16.4267 33.9293 16.5226V26.3918L35.8851 27.3087V30.257H25.4775V27.3087L28.4203 26.3918V5.70024L25.4775 4.96319V1.11008H33.9293V12.5137ZM58.6923 12.909C58.6923 12.8612 58.9796 12.5796 59.5537 12.0641C60.1282 11.5487 60.7919 11.0814 61.5456 10.6619C62.3112 10.2304 63.0649 10.0147 63.8067 10.0147C64.3928 10.0147 64.943 10.0628 65.4575 10.1587C65.9717 10.2543 66.3727 10.3563 66.6597 10.4642C66.9588 10.5721 67.1442 10.638 67.2161 10.6619L66.9288 17.745H63.6271L63.0707 14.6168C62.437 14.6168 61.8209 14.7728 61.2226 15.0844C60.6365 15.3838 60.134 15.7194 59.7152 16.0911C59.3087 16.4506 59.1053 16.6424 59.1053 16.6663V26.3918L62.7838 27.3087V30.257H50.6534V27.3087L53.5963 26.3918V14.4192L50.6534 13.5023V10.554L58.3693 10.3744L58.6923 12.909ZM70.9842 4.29803C70.9842 3.29131 71.2953 2.48834 71.9175 1.88909C72.5397 1.28984 73.2811 0.990234 74.1425 0.990234C76.2001 0.990234 77.2288 2.09284 77.2288 4.29803C77.2288 5.32871 76.9119 6.14967 76.2778 6.7609C75.656 7.36011 74.9439 7.65975 74.1425 7.65975C73.1376 7.65975 72.3601 7.3721 71.8098 6.79684C71.2595 6.20958 70.9842 5.37664 70.9842 4.29803ZM79.7233 27.3087V30.257H68.7054V27.3087L71.6483 26.3918V14.4192L68.7054 13.5023V10.554L77.1573 10.3744V26.3918L79.7233 27.3087ZM85.6088 9.08002C85.6088 6.683 86.2909 4.7834 87.6545 3.38119C89.0185 1.97897 90.9388 0.990234 93.4868 0.990234C95.3169 0.990234 96.1899 1.2826 96.8717 1.51378C97.8242 1.83674 98.4929 1.99696 99.1031 2.24864C99.7131 2.48834 100.018 2.62017 100.018 2.64413L99.9107 8.05525H96.609L96.0526 5.48451C95.9568 5.46054 95.7115 5.43057 95.3169 5.39463C94.922 5.35868 94.4675 5.3407 93.953 5.3407C92.0629 5.3407 91.1178 6.38336 91.1178 8.46867V10.7516H95.9091L95.8014 14.4192H91.1178V26.3918L94.7963 27.3087V30.257H82.6662V27.3087L85.6088 26.3918V14.4192H82.3071V11.291L85.6088 10.7516V9.08002ZM107.214 30.6164C105.228 30.6164 103.823 29.9993 102.997 28.7649C102.184 27.5306 101.777 25.7566 101.777 23.4435V14.9766H98.3675V11.3989L101.777 10.9315V5.84406L107.286 4.85532V10.9315H112.436V14.9766H107.286V23.0841C107.286 24.3065 107.417 25.1636 107.68 25.6548C107.956 26.1461 108.476 26.3918 109.242 26.3918C109.684 26.3918 110.199 26.2959 110.785 26.1044C111.371 25.9006 111.826 25.7149 112.149 25.547L113.459 28.3515C111.401 29.8733 109.319 30.6284 107.214 30.6164ZM113.997 10.554L123.812 10.3744V13.5023L121.749 13.8798L125.033 24.1809L128.155 13.9877L126.02 13.5023V10.554L135.907 10.3744V13.5023L133.628 13.9877L128.227 29.0704C127.521 31.0598 126.767 32.7618 125.966 34.1761C125.164 35.5903 124.123 36.7646 122.843 37.6995C121.575 38.6342 120.038 39.1018 118.232 39.1018C117.717 39.1018 117.053 39.0537 116.24 38.9578C115.439 38.8741 114.912 38.8202 114.661 38.796L115.181 34.8591H117.568C118.836 34.8591 119.835 34.4096 120.564 33.5108C121.306 32.612 121.946 31.5394 122.485 30.2928L115.953 14.0955L113.997 13.5023V10.554ZM138.276 27.3807C138.276 26.3741 138.587 25.5709 139.209 24.9718C139.843 24.3724 140.585 24.073 141.434 24.073C142.439 24.073 143.204 24.3604 143.731 24.9356C144.257 25.5111 144.52 26.3259 144.52 27.3807C144.52 28.4113 144.215 29.2322 143.605 29.8436C142.995 30.4427 142.247 30.7424 141.362 30.7424C140.357 30.7424 139.592 30.4546 139.065 29.8794C138.539 29.2923 138.276 28.4594 138.276 27.3807Z" fill="#FFFAFF"/>
</svg>
