<svg width="30" height="31" viewBox="0 0 30 31" fill="none" xmlns="http://www.w3.org/2000/svg">
<path d="M27.1023 30.0306L17.5568 20.4715C16.7045 21.1543 15.7244 21.6949 14.6165 22.0932C13.5085 22.4915 12.3295 22.6906 11.0795 22.6906C7.98295 22.6906 5.3625 21.6169 3.21818 19.4696C1.07273 17.3211 0 14.6963 0 11.5953C0 8.49431 1.07273 5.86956 3.21818 3.72105C5.3625 1.57368 7.98295 0.5 11.0795 0.5C14.1761 0.5 16.7972 1.57368 18.9426 3.72105C21.0869 5.86956 22.1591 8.49431 22.1591 11.5953C22.1591 12.8471 21.9602 14.0277 21.5625 15.1373C21.1648 16.2468 20.625 17.2283 19.9432 18.0818L29.5312 27.6835C29.8438 27.9964 30 28.3805 30 28.8357C30 29.2909 29.8295 29.6892 29.4886 30.0306C29.1761 30.3435 28.7784 30.5 28.2955 30.5C27.8125 30.5 27.4148 30.3435 27.1023 30.0306ZM11.0795 19.2767C13.2102 19.2767 15.0216 18.5302 16.5136 17.0371C18.0045 15.543 18.75 13.729 18.75 11.5953C18.75 9.46159 18.0045 7.64765 16.5136 6.15348C15.0216 4.66045 13.2102 3.91394 11.0795 3.91394C8.94886 3.91394 7.1375 4.66045 5.64545 6.15348C4.15454 7.64765 3.40909 9.46159 3.40909 11.5953C3.40909 13.729 4.15454 15.543 5.64545 17.0371C7.1375 18.5302 8.94886 19.2767 11.0795 19.2767Z" fill="#FFFAFF" fill-opacity="0.9"/>
</svg>
