<svg width="25" height="26" viewBox="0 0 25 26" fill="none" xmlns="http://www.w3.org/2000/svg">
<path d="M24.4579 7.09453L18.3985 1.03277C18.0521 0.691372 17.5854 0.5 17.0992 0.5C16.613 0.5 16.1463 0.691372 15.7999 1.03277L8.16524 8.65885L4.02595 12.7997L0.542051 16.2964C0.370316 16.4665 0.233986 16.6689 0.140946 16.892C0.0479053 17.1151 0 17.3545 0 17.5962C0 17.8379 0.0479053 18.0773 0.140946 18.3004C0.233986 18.5235 0.370316 18.7259 0.542051 18.896L6.60151 24.9577C6.77151 25.1295 6.97387 25.2659 7.19688 25.359C7.4199 25.4521 7.65914 25.5 7.90079 25.5C8.14243 25.5 8.38168 25.4521 8.6047 25.359C8.82771 25.2659 9.03007 25.1295 9.20007 24.9577L24.4579 9.69407C24.6297 9.52401 24.766 9.32157 24.8591 9.09847C24.9521 8.87537 25 8.63603 25 8.3943C25 8.15256 24.9521 7.91322 24.8591 7.69012C24.766 7.46702 24.6297 7.26459 24.4579 7.09453ZM23.1587 8.3943L7.90079 23.658L1.84133 17.5962L4.68134 14.7551L7.70532 17.7918C7.88114 17.9618 8.11614 18.0569 8.36071 18.0569C8.60528 18.0569 8.84028 17.9618 9.0161 17.7918C9.18883 17.6173 9.28573 17.3817 9.28573 17.1361C9.28573 16.8906 9.18883 16.6549 9.0161 16.4805L5.98062 13.4554L8.82063 10.6143L11.8446 13.6509C12.0204 13.821 12.2554 13.916 12.5 13.916C12.7446 13.916 12.9796 13.821 13.1554 13.6509C13.3281 13.4764 13.425 13.2408 13.425 12.9953C13.425 12.7497 13.3281 12.5141 13.1554 12.3396L10.1199 9.31449L12.9599 6.4734L15.9839 9.51003C16.1597 9.6801 16.3947 9.77517 16.6393 9.77517C16.8839 9.77517 17.1189 9.6801 17.2947 9.51003C17.4674 9.33557 17.5643 9.09994 17.5643 8.85439C17.5643 8.60884 17.4674 8.37322 17.2947 8.19876L14.2592 5.17363L17.0992 2.33254L23.1587 8.3943Z" fill="#D8315B"/>
</svg>
