<svg width="18" height="24" viewBox="0 0 18 24" fill="none" xmlns="http://www.w3.org/2000/svg">
<path d="M9 12C9.61875 12 10.1486 11.7795 10.5896 11.3385C11.0299 10.8982 11.25 10.3687 11.25 9.75C11.25 9.13125 11.0299 8.60138 10.5896 8.16037C10.1486 7.72012 9.61875 7.5 9 7.5C8.38125 7.5 7.85175 7.72012 7.4115 8.16037C6.9705 8.60138 6.75 9.13125 6.75 9.75C6.75 10.3687 6.9705 10.8982 7.4115 11.3385C7.85175 11.7795 8.38125 12 9 12ZM9 23.25C5.98125 20.6812 3.72675 18.2951 2.2365 16.0916C0.7455 13.8889 0 11.85 0 9.975C0 7.1625 0.904875 4.92188 2.71463 3.25312C4.52363 1.58437 6.61875 0.75 9 0.75C11.3812 0.75 13.4764 1.58437 15.2854 3.25312C17.0951 4.92188 18 7.1625 18 9.975C18 11.85 17.2549 13.8889 15.7646 16.0916C14.2736 18.2951 12.0188 20.6812 9 23.25Z" fill="#D8315B"/>
</svg>
